<svg xmlns="http://www.w3.org/2000/svg" xmlns:xlink="http://www.w3.org/1999/xlink" viewBox="0 0 421.62 290.6"><defs><style>.cls-1,.cls-4{fill-opacity:0;fill-rule:evenodd;}.cls-1{opacity:0.7;}.cls-1,.cls-3{isolation:isolate;}.cls-2{fill:url(#Безымянный_градиент_5);}.cls-3{fill:none;stroke:#fff;stroke-width:1.12px;opacity:0.2;}.cls-5{fill:url(#Безымянный_градиент_6);}</style><linearGradient id="Безымянный_градиент_5" x1="957.62" y1="-410.49" x2="957.62" y2="-410.77" gradientTransform="matrix(1495, 0, 0, -984, -1431434.4, -403917.41)" gradientUnits="userSpaceOnUse"><stop offset="0" stop-color="#3f70b6" stop-opacity="0.17"/><stop offset="1" stop-color="#5d6147" stop-opacity="0"/></linearGradient><linearGradient id="Безымянный_градиент_6" x1="957.62" y1="-410.5" x2="957.62" y2="-410.78" gradientTransform="matrix(1495, 0, 0, -984, -1431433.52, -403917.41)" gradientUnits="userSpaceOnUse"><stop offset="0" stop-color="#f8b36b" stop-opacity="0.17"/><stop offset="1" stop-color="#5d6147" stop-opacity="0"/></linearGradient></defs><g id="Слой_2" data-name="Слой 2"><g id="Слой_1-2" data-name="Слой 1"><path class="cls-1" d="M14.58,207.11l40.87-82.56,46.74,55.13,69.68-93.76,36.67,11.76L234,77.81,264,76.13l16.24-26.59,83.68-1.4L420.13,0V275.4H1.71Z"/><path class="cls-2" d="M14.58,207.11l40.87-82.56,46.74,55.13,69.68-93.76,36.67,11.76L234,77.81,264,76.13l16.24-26.59,83.68-1.4L420.13,0V275.4H1.71Z"/><path class="cls-3" d="M27,183.19,56.57,124.9l46.79,55.39L171.77,86.4,209.7,97.56l24.55-19.8,30.68-2,15.34-25.94L364,48.19,400.49,17"/><path class="cls-4" d="M408.64,221.79l-41.17-83.2-47.1,55.56L250.15,99.67l-37,11.85-25.66-20-30.17-1.7L141,63,56.69,61.6,0,13.1V290.6H421.62Z"/><path class="cls-5" d="M408.64,221.79l-41.17-83.2-47.1,55.56L250.15,99.67l-37,11.85-25.66-20-30.17-1.7L141,63,56.69,61.6,0,13.1V290.6H421.62Z"/></g></g></svg>