<svg xmlns="http://www.w3.org/2000/svg" xmlns:xlink="http://www.w3.org/1999/xlink" viewBox="0 0 461.48 293.48"><defs><style>.cls-1{fill-opacity:0;fill-rule:evenodd;}.cls-2{fill:url(#Безымянный_градиент_4);}.cls-3,.cls-4{fill:none;stroke:#f8b36b;isolation:isolate;}.cls-3{stroke-width:1.15px;opacity:0.4;}.cls-4{stroke-width:0.94px;opacity:0.5;}</style><linearGradient id="Безымянный_градиент_4" x1="1072.32" y1="23.6" x2="1072.58" y2="23.49" gradientTransform="matrix(1574, 0, 0, -1001, -1687873.36, 23703.79)" gradientUnits="userSpaceOnUse"><stop offset="0" stop-color="#3f70b6" stop-opacity="0.13"/><stop offset="1" stop-color="#5d6147" stop-opacity="0"/></linearGradient></defs><g id="Слой_2" data-name="Слой 2"><g id="Слой_1-2" data-name="Слой 1"><path class="cls-1" d="M0,293.48l99.1-95.87,45.15,39.28,27.85-84.73,81.51-30.49L317.23,63,355.64,81.8,424.83,0l36.65,293.19Z"/><path class="cls-2" d="M0,293.48l99.1-95.87,45.15,39.28,27.85-84.73,81.51-30.49L317.23,63,355.64,81.8,424.83,0l36.65,293.19Z"/><path class="cls-3" d="M2.81,290.15l96.53-91.64,45,37.46,26.51-81.83,80.68-30.26L317.23,63,354,81.84l45-52.48"/><path class="cls-4" d="M144.4,233.1a2.48,2.48,0,1,1-2.47,2.48A2.47,2.47,0,0,1,144.4,233.1Z"/><path class="cls-4" d="M170.35,151.07a2.48,2.48,0,1,1-2.47,2.48A2.48,2.48,0,0,1,170.35,151.07Z"/><path class="cls-4" d="M317.36,61.07a2.47,2.47,0,1,1-2.47,2.47A2.47,2.47,0,0,1,317.36,61.07Z"/></g></g></svg>