<svg xmlns="http://www.w3.org/2000/svg" xmlns:xlink="http://www.w3.org/1999/xlink" viewBox="0 0 796.57 796.4"><defs><style>.cls-1{fill:none;}.cls-2{clip-path:url(#clip-path);}.cls-3{fill:#ffb569;}</style><clipPath id="clip-path" transform="translate(-0.7 -1.03)"><rect class="cls-1" width="798.08" height="798.08"/></clipPath></defs><g id="Слой_2" data-name="Слой 2"><g id="Слой_1-2" data-name="Слой 1"><g class="cls-2"><path class="cls-3" d="M363.76,796.76c-29.44-2.45-36.65-4.19-55.79-9.11,0,0,6.21-15.6,14.65-33.85s16.54-38,16.54-38,4.69.84,14.64,1.87c32.17,3.72,84.35,1.92,110.6-3.8,126.1-27.47,220.87-122.27,249.09-249.19,7.84-35.26,7.84-95.78,0-131-14.33-64.43-44.32-118.9-90.36-164.09-12.06-11.83-22.92-21.5-24.14-21.5-1.91,0-97.51,211.17-97.51,211.17s31.6,0,69.47,0h68.84l1.48,12.32c5.38,44.86-3.54,93.81-24.91,136.7-13,26-20.72,36.86-42.58,59.51-38.29,39.68-81.43,62.49-135.88,71.86-20,3.44-50.54,5-62.89,2.32,0,0,7.83-18.1,16.36-38.77l15.6-37,13-1.61c65-8.1,119.27-54.87,139.46-120.29l1.63-5.3L380.31,439l-73,160.6c-39.8,87.62-73,159.94-73.76,160.71-2,2-33-14.38-55.56-29.47C33.36,634.07-32,454.57,16.62,287.72c19.06-65.39,52.25-121.26,101-170.07C189.57,45.65,279.75,5.94,382.52,1c36.32.43,60.35.35,105.52,11.14,0,0-7,17.29-15.55,36.05L457,82.34C448.2,81,443.21,80.5,438.21,80c-13.24-1.28-18.68-1.86-43.39-1.86-28.78,0-42,2-61.35,6.29C207.2,112.11,112.6,206.76,84.38,333.68c-7.84,35.26-7.84,95.78,0,131a334.55,334.55,0,0,0,54.1,122.42c16.2,22.75,57.94,65.1,60.89,61.8,1.75-2,17.51-36.24,62.47-135.92,9.32-20.65,20.7-45.73,25.3-55.74l8.36-18.18H158.08l-1.48-12.33c-5.38-44.85,3.54-93.8,24.91-136.7,13-26,20.72-36.86,42.58-59.51,38.3-39.68,81.43-62.49,135.88-71.85,22.63-3.89,62.41-4.86,62.41-1.51,0,1.15-7.56,18.46-16.65,38.54L388.61,233.6l-11.6.74C311.59,238.53,258.53,289,238.45,354.05l-1.74,5.6,89.79.05h89.22l29-63.76C475.34,228.86,515,141.31,542,81.2c9.28-20.65,19.11-41.77,19.11-41.77l1.52-3.24c1.18.42,2,.71,3.53,1.36,2.29.94,8.18,3.51,17.51,8.48,168.65,89.8,250.63,282.61,197.57,464.64-19.06,65.39-52.25,121.27-101,170.08C621.12,739.92,548,778,465.76,792.41c-20.42,3.57-85.28,6.35-102,4.35Z" transform="translate(-0.7 -1.03)"/></g></g></g></svg>